<?xml version="1.0" encoding="utf-8"?>
<!-- Svg Vector Icons : http://www.onlinewebfonts.com/icon -->
<!DOCTYPE svg PUBLIC "-//W3C//DTD SVG 1.1//EN" "http://www.w3.org/Graphics/SVG/1.1/DTD/svg11.dtd">
<svg version="1.1" xmlns="http://www.w3.org/2000/svg" xmlns:xlink="http://www.w3.org/1999/xlink" x="0px" y="0px" viewBox="0 0 1000 1000" enable-background="new 0 0 1000 1000" xml:space="preserve">
<metadata> Svg Vector Icons : http://www.onlinewebfonts.com/icon </metadata>
<g><g transform="translate(0.000000,511.000000) scale(0.100000,-0.100000)"><path d="M183.4,4942.8c-50.9-44-64.8-78.7-74.1-180.6c-16.2-194.5,32.4-282.5,178.3-335.8c150.5-53.3,264-145.9,345-282.5c53.3-92.6,62.5-134.3,62.5-282.5s-9.3-189.9-62.5-282.5c-81-136.6-194.5-229.2-345-282.5c-157.5-57.9-182.9-118.1-182.9-453.9c0-252.4,0-254.7,55.6-254.7c81,0,236.2-60.2,324.2-127.4c41.7-32.4,106.5-113.5,143.6-178.3c55.6-104.2,67.1-148.2,67.1-284.8c-2.3-261.7-113.5-423.8-389-555.8c-85.7-41.7-155.2-92.6-171.4-127.4c-41.7-83.4-41.7-578.9,0-578.9c16.2,0,85.7-16.2,152.8-37.1c308-90.3,488.6-435.3,386.7-741c-55.6-171.4-155.2-275.6-347.4-365.9C113.9-510.6,100-538.4,109.3-874.2l6.9-252.4l101.9-18.5c384.4-64.8,599.8-497.9,421.5-847.5c-57.9-115.8-215.4-252.4-331.2-287.2c-46.3-13.9-111.1-50.9-138.9-81c-48.6-51-53.3-83.4-60.2-340.4l-9.3-284.8l97.3-16.2c185.3-30.1,354.3-152.8,446.9-326.5c67.2-125.1,69.5-377.5,4.6-509.5c-64.8-129.7-206.1-257-333.5-301.1c-173.7-57.9-199.2-97.2-199.2-324.2c0-171.4,6.9-199.1,55.6-252.4c50.9-55.6,71.8-60.2,245.5-60.2c224.6,0,270.9,25.4,321.9,180.6c176,528,926.3,532.6,1118.5,4.6c60.2-169,92.6-185.3,368.2-185.3c277.9,0,321.9,23.1,389,213c44,120.4,201.5,280.2,326.5,333.4c92.6,37.1,287.1,41.7,409.9,9.3c125-34.7,308-210.7,356.6-342.7c74.1-199.2,99.6-213,370.5-213c129.7,0,254.7,6.9,275.6,13.9c23.2,9.3,69.5,85.7,108.8,169.1c83.4,187.6,157.5,268.6,308,340.4c319.6,150.5,701.6-9.2,812.8-342.7c53.2-166.7,88-180.6,416.8-180.6h282.5l16.2,90.3c23.2,145.9,145.9,326.5,273.3,405.3c132,81,328.8,106.5,490.9,60.2c143.6-39.4,294.1-178.3,358.9-328.8c90.3-215.4,108.8-226.9,393.7-226.9c280.2,0,312.6,16.2,372.8,196.8c44,125.1,238.5,317.3,358.9,354.3c324.2,95,592.8-25.4,741-333.4c44-95,101.9-182.9,125.1-194.5c23.2-13.9,115.8-23.1,203.8-23.1c152.8,0,166.7,4.6,222.3,71.8c50.9,60.2,60.2,92.6,60.2,229.3c0,136.6-9.3,169-57.9,226.9c-39.4,46.3-88,76.4-150.5,85.7c-106.5,18.5-282.5,129.7-347.4,220c-164.4,229.3-150.5,525.7,30.1,731.8c99.6,113.5,173.7,159.8,342.7,208.4c157.5,48.7,189.9,113.5,178.3,384.4c-9.2,243.1-27.8,268.6-240.8,331.1c-361.3,104.2-534.9,534.9-347.4,856.8c78.7,129.7,215.4,233.9,377.5,280.2c182.9,53.3,215.4,108.8,215.4,356.6c0,247.8-32.4,303.3-215.4,356.6c-264,76.4-428.4,270.9-449.2,530.3c-23.2,277.9,152.9,530.3,426.1,609c203.8,57.9,224.6,88,233.9,331.1c11.6,273.3-18.5,335.8-187.6,384.4c-377.5,108.8-560.4,435.3-442.3,782.7c50.9,152.8,208.4,303.4,361.3,352c259.4,81,282.5,118.1,270.9,414.5c-11.6,233.9-34.7,268.6-231.6,324.2c-169.1,48.6-321.9,180.6-391.4,342.7c-62.5,148.2-55.6,349.7,18.5,497.9c62.5,122.7,208.4,245.5,333.5,282.5c226.9,67.2,273.3,120.4,273.3,321.9c0,106.5-9.3,134.3-67.2,192.2c-62.5,60.2-83.4,67.2-226.9,67.2c-187.6,0-245.4-32.4-287.1-157.5c-88-268.6-301-426.1-576.6-423.8c-71.8,0-176,16.2-229.3,39.4c-118.1,46.3-294.1,236.2-331.1,361.3c-44,150.5-104.2,180.6-365.9,180.6c-261.7,0-321.9-30.1-365.9-180.6c-37.1-125.1-213-314.9-333.5-363.6c-317.2-127.4-690.1,44-796.6,363.6c-53.2,162.1-92.6,180.6-368.2,180.6c-275.5,0-314.9-18.5-368.2-180.6c-83.4-245.5-298.7-400.6-558.1-400.6c-254.7,0-435.3,120.4-546.5,365.9c-90.3,199.1-122.7,215.4-396,215.4c-261.7,0-308-27.8-375.1-210.7c-81-224.6-291.8-365.9-541.9-368.2c-264,0-428.4,106.5-548.8,361.2c-44,92.6-101.9,180.6-125,194.5c-60.2,30.1-449.2,30.1-521-2.3c-37.1-18.5-76.4-76.4-118.1-173.7c-67.2-157.5-192.2-291.8-326.5-347.3c-41.7-18.5-148.2-32.4-233.9-32.4c-127.4,0-180.6,13.9-273.2,64.8c-125,69.5-261.7,229.3-282.5,331.1c-6.9,37.1-39.4,92.6-71.8,125c-50.9,51-76.4,57.9-238.5,57.9C271.4,4996.1,236.6,4989.1,183.4,4942.8z M5477,2296c660-136.6,1248.2-604.4,1544.6-1227.3c166.7-352,201.5-514.1,201.5-958.7c0-456.2-37.1-622.9-217.7-988.8c-347.4-704-988.8-1150.9-1773.8-1238.9c-745.6-83.4-1537.6,254.7-1993.8,849.9c-157.5,203.8-340.4,569.6-405.2,810.5c-74.1,275.6-74.1,845.2,0,1123.1c252.4,924,998.1,1558.5,1973,1676.6C4937.5,2358.5,5291.8,2333.1,5477,2296z"/></g></g>
</svg>